<?xml version="1.0" encoding="UTF-8" standalone="no"?>
<!-- Generator: Adobe Illustrator 22.1.0, SVG Export Plug-In . SVG Version: 6.00 Build 0)  -->

<svg
   version="1.1"
   id="Layer_1"
   x="0px"
   y="0px"
   viewBox="0 0 512 512"
   style="enable-background:new 0 0 512 512;"
   xml:space="preserve"
   sodipodi:docname="fedora.svg"
   inkscape:version="1.3 (0e150ed6c4, 2023-07-21)"
   xmlns:inkscape="http://www.inkscape.org/namespaces/inkscape"
   xmlns:sodipodi="http://sodipodi.sourceforge.net/DTD/sodipodi-0.dtd"
   xmlns="http://www.w3.org/2000/svg"
   xmlns:svg="http://www.w3.org/2000/svg"><defs
   id="defs1"><filter
     style="color-interpolation-filters:sRGB;"
     inkscape:label="Invert"
     id="filter1"
     x="0"
     y="0"
     width="1"
     height="1"><feColorMatrix
       values="-1 0 0 0 1 0 -1 0 0 1 0 0 -1 0 1 0.21 0.72 0.07 1 0 "
       result="fbSourceGraphic"
       id="feColorMatrix1" /><feColorMatrix
       result="fbSourceGraphicAlpha"
       in="fbSourceGraphic"
       values="0 0 0 -1 0 0 0 0 -1 0 0 0 0 -1 0 0 0 0 1 0"
       id="feColorMatrix2" /><feColorMatrix
       id="feColorMatrix3"
       values="-1 0 0 0 1 0 -1 0 0 1 0 0 -1 0 1 0.21 0.72 0.07 1 0 "
       result="fbSourceGraphic"
       in="fbSourceGraphic" /><feColorMatrix
       result="fbSourceGraphicAlpha"
       in="fbSourceGraphic"
       values="0 0 0 -1 0 0 0 0 -1 0 0 0 0 -1 0 0 0 0 1 0"
       id="feColorMatrix4" /><feColorMatrix
       id="feColorMatrix5"
       values="-1 0 0 0 1 0 -1 0 0 1 0 0 -1 0 1 0.21 0.72 0.07 1 0 "
       result="fbSourceGraphic"
       in="fbSourceGraphic" /><feColorMatrix
       result="fbSourceGraphicAlpha"
       in="fbSourceGraphic"
       values="0 0 0 -1 0 0 0 0 -1 0 0 0 0 -1 0 0 0 0 1 0"
       id="feColorMatrix6" /><feColorMatrix
       id="feColorMatrix7"
       values="-1 0 0 0 1 0 -1 0 0 1 0 0 -1 0 1 0.21 0.72 0.07 1 0 "
       result="fbSourceGraphic"
       in="fbSourceGraphic" /><feColorMatrix
       result="fbSourceGraphicAlpha"
       in="fbSourceGraphic"
       values="0 0 0 -1 0 0 0 0 -1 0 0 0 0 -1 0 0 0 0 1 0"
       id="feColorMatrix8" /><feColorMatrix
       id="feColorMatrix9"
       values="-1 0 0 0 1 0 -1 0 0 1 0 0 -1 0 1 0.21 0.72 0.07 1 0 "
       result="color2"
       in="fbSourceGraphic" /></filter></defs><sodipodi:namedview
   id="namedview1"
   pagecolor="#505050"
   bordercolor="#ffffff"
   borderopacity="1"
   inkscape:showpageshadow="0"
   inkscape:pageopacity="0"
   inkscape:pagecheckerboard="1"
   inkscape:deskcolor="#d1d1d1"
   inkscape:zoom="1.4199219"
   inkscape:cx="256"
   inkscape:cy="244.73177"
   inkscape:window-width="960"
   inkscape:window-height="1014"
   inkscape:window-x="0"
   inkscape:window-y="36"
   inkscape:window-maximized="0"
   inkscape:current-layer="g1" />&#10;<g
   id="g1">&#10;	<path
   d="M256.8,31.2c-124.1-0.3-225,100.1-225.4,224.2L31,426.3c-0.2,29.7,23.8,53.9,53.5,54.1c0.1,0,0.2,0,0.3,0l170.8,0.4   c124.1,0.3,225.1-100.1,225.4-224.2S380.9,31.5,256.8,31.2z M427.2,189l-62-62.8c2.3-4.7,3.8-9.2,3.8-14.4v-1.6l55.4,56.3   C426.2,173.8,427.1,181.4,427.2,189L427.2,189z M363.2,93.7c27.8,12,49.1,35.3,58.7,64L367.4,103C366.6,99.6,365.2,96.5,363.2,93.7   z M149.5,247.2c-3.1,3.4-5.7,7.3-7.7,11.4l-8.5-8.5C138.6,248.6,144,247.6,149.5,247.2L149.5,247.2z M128.3,251.4l11.8,11.9l-0.9,8   c0,4.3,0.8,8.5,2.4,12.5l-27.1-27.3C119,254.4,123.6,252.7,128.3,251.4L128.3,251.4z M110.1,258.8l38.3,38.5   c-4.9,0.9-9.7,2.5-14.2,4.7l-35.4-36C102.4,263.4,106.2,261,110.1,258.8z M94.8,268.6l35.4,35.6c-3.8,2.5-7.3,5.3-10.5,8.5   l-35-34.7C87.7,274.6,91.1,271.4,94.8,268.6L94.8,268.6z M81.5,281l35,35.1c-3,3.5-5.6,7.3-7.7,11.4l-35.9-36   C75.7,287.7,78.6,284.3,81.5,281z M70.4,295.3l36.5,36.7c-2,4.9-3.2,10-3.6,15.3l-39.6-39.9C65.7,303.2,67.9,299.2,70.4,295.3   L70.4,295.3z M61.6,311.7l41.4,41.9c0.3,9.1,2.6,18.1,6.7,26.3l-52.9-53.7C58.3,321.3,59.8,316.6,61.6,311.7L61.6,311.7z    M53.7,354.9l62.1,62.4c-2.3,4.4-3.6,9.3-3.6,14.4v1.1l-55.6-55.9C54.7,369.7,53.7,362.3,53.7,354.9z M59,385.7l54.5,54.8   c0.8,3.3,2.3,6.4,4.2,9.2C89.9,437.6,68.6,414.4,59,385.7L59,385.7z M53.7,348.5c0.1-5.7,0.8-11.5,2.1-17.1l72.5,72.8   c-3.8,2.3-7.2,5.3-9.9,8.7L53.7,348.5z M307.9,296.5l-42.8-0.1l-0.1,56.2c-0.2,69.5-64.6,116.2-126.1,103.3c-5.7,0-20-8.7-20-24.3   c0.2-13.5,11.1-24.5,24.6-24.7c6.3,0,6.3,1.6,15.8,1.6c31,0.1,56.2-24.9,56.3-55.9c0-0.1,0-0.1,0-0.2l0.1-47.2c0-4.5-4.5-9-8.9-9   l-33.7-0.1c-32.7-0.1-32.6-49.6,0.1-49.5l42.8,0.1l0.1-56.2c0.1-58.3,47.4-105.5,105.7-105.4c0.1,0,0.2,0,0.2,0   c6.8,0,13.6,0.7,20.3,2.3c11.2,1.8,20,11.9,20,24.1c0,15.6-15,27.9-30.4,24c-27.5-5.9-66.1,14.5-66.2,55.1l-0.1,47.2c0,5,4,9,8.9,9   c0,0,0,0,0,0l33.7,0.1C340.7,247.2,340.6,296.6,307.9,296.5L307.9,296.5z M331.5,296.2c3.3-3.3,5.8-7.2,7.6-11.4l8.5,8.5   C342.3,294.7,336.9,295.7,331.5,296.2z M352.5,292l-11.8-11.9l0.9-8.1c0-4.3-0.8-8.5-2.4-12.5l27.1,27.3   C361.9,288.9,357.3,290.7,352.5,292L352.5,292z M370.6,284.6l-38.1-38.5c4.9-1.1,9.6-2.4,13.7-4.7l36.3,36   C378.7,279.9,374.6,282.4,370.6,284.6L370.6,284.6z M386.2,274.8l-35.4-35.6c3.8-2.4,7.4-5.3,10.5-8.5l35,35.1   C393.1,268.9,389.7,271.9,386.2,274.8z M399.4,262.4l-35-35.1c3-3.5,5.6-7.4,7.7-11.4l35.9,36C405.3,255.5,402.5,259.1,399.4,262.4   z M410.4,248.1l-36.5-36.7c2-4.9,3.2-10,3.6-15.3l39.6,39.9C415.2,240.2,413,244.2,410.4,248.1L410.4,248.1z M424,217.1   c-1.3,4.9-2.9,9.7-4.7,14.4l-41.4-41.6c-0.3-9.2-2.7-18.2-7.1-26.3L424,217.1z M425,211.4l-72.2-72.4c3.9-2.3,7.3-5.5,9.9-9.2   l64.5,64.9C427.1,200.4,426.3,206,425,211.4L425,211.4z"
   id="path1"
   style="filter:url(#filter1)" />&#10;</g>&#10;</svg>
