<?xml version="1.0" encoding="UTF-8" standalone="no"?>
<!-- Created with Inkscape (http://www.inkscape.org/) -->

<svg
   xmlns:dc="http://purl.org/dc/elements/1.1/"
   xmlns:cc="http://creativecommons.org/ns#"
   xmlns:rdf="http://www.w3.org/1999/02/22-rdf-syntax-ns#"
   xmlns:svg="http://www.w3.org/2000/svg"
   xmlns="http://www.w3.org/2000/svg"
   xmlns:sodipodi="http://sodipodi.sourceforge.net/DTD/sodipodi-0.dtd"
   xmlns:inkscape="http://www.inkscape.org/namespaces/inkscape"
   width="59.230469mm"
   height="61.787212mm"
   viewBox="0 0 59.230469 61.787212"
   version="1.1"
   id="svg8"
   inkscape:version="0.92.5 (2060ec1f9f, 2020-04-08)"
   sodipodi:docname="whisker_menu.svg">
  <defs
     id="defs2" />
  <sodipodi:namedview
     id="base"
     pagecolor="#ffffff"
     bordercolor="#666666"
     borderopacity="1.0"
     inkscape:pageopacity="0.0"
     inkscape:pageshadow="2"
     inkscape:zoom="0.70710678"
     inkscape:cx="-122.02971"
     inkscape:cy="197.11921"
     inkscape:document-units="mm"
     inkscape:current-layer="layer1"
     showgrid="false"
     inkscape:pagecheckerboard="true"
     fit-margin-top="0"
     fit-margin-left="0"
     fit-margin-right="0"
     fit-margin-bottom="0"
     inkscape:window-width="1920"
     inkscape:window-height="1032"
     inkscape:window-x="1920"
     inkscape:window-y="0"
     inkscape:window-maximized="1" />
  <metadata
     id="metadata5">
    <rdf:RDF>
      <cc:Work
         rdf:about="">
        <dc:format>image/svg+xml</dc:format>
        <dc:type
           rdf:resource="http://purl.org/dc/dcmitype/StillImage" />
        <dc:title></dc:title>
      </cc:Work>
    </rdf:RDF>
  </metadata>
  <g
     inkscape:label="Layer 1"
     inkscape:groupmode="layer"
     id="layer1"
     transform="translate(-40.961257,-55.062539)">
    <g
       id="g4690">
      <path
         inkscape:connector-curvature="0"
         id="path4666"
         d="m 66.54413,114.71189 c -4.715862,-2.6915 -6.904239,-4.20543 -10.532475,-7.28641 -5.921069,-5.02797 -9.425689,-9.433494 -11.425681,-14.362791 -1.600645,-3.945037 -1.720654,-6.681044 -0.582297,-13.275466 0.296084,-1.715191 0.539155,-3.636963 0.540159,-4.270609 0.0033,-2.028496 -0.784004,-4.310131 -2.242676,-6.500048 -1.434915,-2.154258 -1.581024,-2.690194 -1.07445,-3.94112 0.253627,-0.626311 0.557126,-0.818768 1.840282,-1.166952 0.882171,-0.239386 2.052638,-0.808015 2.748344,-1.335174 1.272076,-0.963905 3.030386,-3.644062 3.348591,-5.104201 0.198758,-0.912026 0.308289,-0.958728 3.045069,-1.298091 10.556888,-1.309107 22.211188,-1.464109 32.793113,-0.436166 3.475886,0.337658 6.454132,0.685389 6.61833,0.772755 0.164209,0.0874 0.298559,0.371068 0.298559,0.630445 0,0.850056 1.04693,3.058696 1.98009,4.177269 1.064783,1.276358 2.902309,2.399446 4.29335,2.624089 1.068437,0.172546 1.644532,0.766408 1.944642,2.004614 0.16092,0.663974 0.004,1.056258 -0.981223,2.460646 -0.644976,0.918908 -1.487369,2.341429 -1.871987,3.161139 -0.667041,1.421606 -0.692245,1.651299 -0.545994,4.975845 0.08436,1.916995 0.313073,3.917248 0.50832,4.444996 0.226823,0.613111 0.360499,2.431914 0.370231,5.037625 0.01443,3.871707 -0.0257,4.18571 -0.794155,6.204903 -2.684985,7.055223 -9.307908,14.288832 -18.589327,20.303382 -2.877294,1.86455 -7.298126,4.31718 -7.781653,4.31718 -0.08879,0 -1.846962,-0.96204 -3.907162,-2.13786 z"
         style="fill:#ff5100;fill-opacity:1;stroke-width:0.25855076" />
      <path
         inkscape:connector-curvature="0"
         id="path4591"
         d="m 70.404449,104.03365 c -0.42868,-0.6655 -0.90257,-1.4884 -1.05309,-1.82867 -0.26902,-0.60817 -0.26984,-0.64491 -0.048,-2.16364 0.24296,-1.66308 0.17007,-2.57947 -0.21101,-2.652848 -0.22533,-0.0434 -0.72159,0.950848 -0.86902,1.741038 -0.17159,0.91975 -0.83754,1.64002 -2.49618,2.69979 -0.42871,0.27392 -0.81274,0.46478 -0.8534,0.42413 -0.0406,-0.0407 0.11,-0.72222 0.33479,-1.51459 0.22478,-0.792372 0.53581,-1.89168 0.69116,-2.44293 0.74156,-2.631178 0.73407,-2.617308 1.95068,-3.613638 0.54465,-0.44604 0.61963,-0.66738 0.67255,-1.985387 0.0385,-0.958834 0.006,-1.177774 -0.22632,-1.503392 -0.34539,-0.48505 -0.57944,-0.481912 -0.87101,0.01167 -0.12762,0.216041 -0.4343,0.501685 -0.68152,0.634768 -0.54408,0.292885 -0.66417,0.677457 -0.38196,1.223201 0.68771,1.32988 -0.47676,2.99681 -2.99829,4.29203 -1.19665,0.614678 -1.37317,0.671298 -1.51147,0.484778 -0.15908,-0.21455 -0.43489,-0.19716 -2.09429,0.132 l -0.46772,0.0928 0.46772,-0.51585 c 0.25725,-0.283708 0.95896,-1.028488 1.55936,-1.655058 0.6004,-0.62657 1.44229,-1.57081 1.87088,-2.0983 0.42859,-0.52749 0.86946,-0.963808 0.97971,-0.969595 0.11025,-0.0058 0.41725,-0.07074 0.68223,-0.144349 0.42392,-0.117755 0.53128,-0.242048 0.89392,-1.034923 0.76389,-1.670182 0.73945,-2.140129 -0.13451,-2.585987 -0.46051,-0.234939 -0.71825,-0.273552 -1.46784,-0.219921 -0.71138,0.0509 -0.90925,0.02532 -0.90925,-0.117555 0,-0.252545 -0.153,-0.230113 -0.80538,0.118071 -0.61152,0.326371 -1.19914,0.939747 -1.19914,1.251696 0,0.10754 0.11174,0.418637 0.24831,0.691332 0.55911,1.116404 0.50084,1.467067 -0.35668,2.146231 l -0.51381,0.40695 0.0584,-0.703667 c 0.051,-0.615323 0.0144,-0.752861 -0.29196,-1.095504 l -0.35032,-0.39184 -0.41342,0.467722 c -0.825,0.933381 -0.9097,1.151504 -0.71771,1.848269 0.22459,0.81504 0.52481,1.62776 0.79259,2.14558 0.1381,0.26707 0.16171,0.4161 0.0659,0.4161 -0.36736,0 -2.54742,-1.26552 -3.23356,-1.87706 l -0.757917,-0.67553 0.27965,-0.761635 c 0.15382,-0.418901 0.593027,-1.42313 0.976037,-2.23162 l 0.69638,-1.469982 1.79248,-0.582081 c 2.07798,-0.674793 3.7116,-1.42389 4.4501,-2.040599 0.96828,-0.808583 1.52868,-2.727791 1.36602,-4.678198 -0.093,-1.115306 -0.17587,-1.452198 -0.35717,-1.452198 -0.0624,0 -0.39925,0.586322 -0.74848,1.302938 -0.34922,0.716616 -0.83292,1.581605 -1.07489,1.922201 -0.24197,0.340593 -0.43994,0.686371 -0.43994,0.7684 0,0.08203 -0.0523,0.149138 -0.11627,0.149138 -0.19203,0 -0.45194,-1.146106 -0.35746,-1.576266 0.0562,-0.255842 0.007,-0.586629 -0.1354,-0.915543 l -0.22339,-0.514972 -0.17907,0.400902 c -0.0985,0.220499 -0.18178,0.489834 -0.1851,0.598522 -0.0133,0.436134 -0.74264,2.116061 -1.20587,2.777561 -0.44344,0.633236 -2.75481,3.105203 -2.90347,3.105203 -0.0333,0 -0.0265,-0.165372 0.0151,-0.367495 0.0416,-0.202121 0.10899,-1.088438 0.14971,-1.969588 0.0407,-0.881152 0.10817,-1.738085 0.14989,-1.904296 0.15046,-0.599511 -0.37323,-0.30716 -1.511027,0.843516 -0.62309,0.630144 -1.39296,1.547741 -1.71082,2.039104 -0.7419,1.146855 -2.17021,2.413216 -3.46383,3.071076 l -1.01827,0.517827 v -0.359161 c 0,-0.558581 0.45541,-1.735789 0.95927,-2.479667 0.56716,-0.837343 1.49236,-3.400359 1.22746,-3.400359 -0.0496,0 -0.28299,0.147082 -0.51868,0.32685 -0.23568,0.179764 -0.85775,0.535742 -1.38237,0.791057 -1.18745,0.5779 -1.16859,0.700241 -0.32686,-2.120167 0.0505,-0.169066 -0.17796,-0.01434 -0.62166,0.421068 -0.53564,0.52564 -0.9903,0.807591 -1.92358,1.19288 -0.67219,0.2775 -1.47774,0.646205 -1.79011,0.819348 -0.38985,0.21609 -0.56795,0.260784 -0.56795,0.142528 0,-0.410715 1.38763,-2.947511 2.21418,-4.047855 0.49605,-0.660365 0.94316,-1.23073 0.99357,-1.267481 0.21728,-0.158406 1.65066,-2.10839 1.87941,-2.55678 0.13795,-0.270407 0.44793,-0.646985 0.68884,-0.83684 0.24091,-0.189854 0.37788,-0.346776 0.30438,-0.348718 -0.0735,-0.0019 -0.21645,-0.05599 -0.31768,-0.120105 -0.14201,-0.08995 -0.0556,-0.232648 0.37844,-0.624747 1.57621,-1.424009 2.9932,-3.696687 3.47195,-5.568559 0.41468,-1.621374 0.92512,-5.798917 0.93892,-7.684267 0.003,-0.385868 0.0269,-0.701582 0.0536,-0.701582 0.0267,0 0.52277,-0.117049 1.102487,-0.260109 2.17723,-0.537287 7.39769,-1.310699 7.67796,-1.137487 0.0685,0.04236 0.12462,0.319353 0.12462,0.615535 0,0.474919 -0.10046,0.648586 -0.85073,1.470631 -1.71061,1.874277 -2.07334,3.241185 -1.29607,4.884171 0.82354,1.740805 1.96223,2.525866 3.62168,2.496931 1.45785,-0.02543 2.26724,-0.613608 2.26639,-1.646991 -7.9e-4,-0.745675 -0.33495,-1.332302 -1.05776,-1.855899 -0.7351,-0.532508 -1.54607,-0.730787 -2.74197,-0.670396 -0.55584,0.02807 -1.01062,0.03408 -1.01062,0.01336 0,-0.08508 1.47127,-0.970246 2.34108,-1.408465 2.49736,-1.258207 3.71284,-1.624229 5.40974,-1.629055 1.06366,-0.003 1.36038,0.04495 1.82974,0.295836 1.36726,0.73084 1.90499,2.299991 1.48499,4.333412 -0.13788,0.667575 -0.12926,0.837528 0.063,1.240657 0.41833,0.877237 1.23805,0.767636 2.30002,-0.30752 0.93086,-0.942411 1.33087,-1.869514 1.33484,-3.093751 0.003,-0.967753 -0.0233,-1.051872 -0.76831,-2.443237 -0.72787,-1.359379 -1.07993,-2.51242 -0.8144,-2.667286 0.0638,-0.0372 1.43896,0.159679 3.05594,0.43751 4.7705,0.819674 5.90178,1.090793 5.98922,1.435351 0.0322,0.126985 0.064,0.983496 0.0706,1.90336 0.0121,1.686319 0.24423,3.214822 0.81134,5.343345 0.6748,2.532732 1.73802,4.365948 3.59966,6.206577 0.51623,0.510403 0.90865,0.976453 0.87205,1.035669 -0.0366,0.05922 -0.21333,0.107665 -0.39274,0.107665 -0.17941,0 -0.32619,0.06558 -0.32619,0.14574 0,0.08016 0.53389,0.907024 1.18642,1.837478 2.47051,3.52271 4.68705,7.021309 4.54094,7.16742 -0.0942,0.09419 -2.21629,-0.962308 -3.16292,-1.574681 -0.51098,-0.330555 -1.2172,-0.877094 -1.56937,-1.214535 -0.35218,-0.337439 -0.66336,-0.590484 -0.69153,-0.562317 -0.0282,0.02816 0.15992,0.465477 0.41795,0.971802 0.436,0.855519 0.94692,2.429642 0.82739,2.549165 -0.0917,0.09171 -1.34885,-0.598758 -2.01257,-1.105387 l -0.64069,-0.489043 0.0977,0.380082 c 0.0537,0.209045 0.1153,0.500356 0.1368,0.647354 0.0534,0.365228 0.41782,1.392674 0.94788,2.672693 0.52728,1.27331 0.79744,2.175886 0.68495,2.288371 -0.0449,0.04492 -0.58074,-0.266337 -1.19071,-0.691687 -2.24201,-1.563402 -3.01559,-2.247958 -3.692,-3.267117 -0.68061,-1.02548 -2.70837,-3.114305 -2.86815,-2.95452 -0.21376,0.213757 -0.17898,1.504611 0.0646,2.397696 0.12695,0.46549 0.27129,1.217184 0.32075,1.670437 l 0.0899,0.824092 -0.38238,-0.334087 c -1.9756,-1.726071 -3.28372,-3.61681 -3.86005,-5.579254 -0.13491,-0.459369 -0.29002,-0.835215 -0.34469,-0.835215 -0.19078,0 -0.39284,0.847878 -0.39487,1.656966 -0.002,0.713584 -0.16154,1.330214 -0.29677,1.145493 -0.0254,-0.03462 -0.22087,-0.303491 -0.43451,-0.597488 -0.21364,-0.293994 -0.43319,-0.565973 -0.48788,-0.60439 -0.0547,-0.03842 -0.34755,-0.609428 -0.65079,-1.268905 -0.57481,-1.25009 -0.88977,-1.711341 -1.08582,-1.590169 -0.31679,0.195786 -0.0122,4.081962 0.40501,5.168339 0.25601,0.666541 3.29822,2.365801 5.46872,3.054625 l 0.97822,0.310441 0.9929,2.010153 c 0.54609,1.105585 0.9929,2.102896 0.9929,2.216256 0,0.11336 -0.19544,0.39101 -0.43431,0.617 -0.86096,0.81452 -3.18948,2.20949 -3.3763,2.02267 -0.0411,-0.0411 0.16558,-0.69435 0.45927,-1.45169 l 0.53399,-1.37697 -0.46835,-0.518403 c -0.25759,-0.28512 -0.53537,-0.665511 -0.6173,-0.845314 -0.21364,-0.468911 -0.48835,-0.40349 -0.73156,0.174217 -0.17465,0.414877 -0.18424,0.60198 -0.0557,1.08706 0.0854,0.32225 0.12886,0.61233 0.0966,0.64461 -0.11014,0.11015 -0.86109,-0.35575 -1.1353,-0.704348 -0.44449,-0.565082 -0.46005,-0.808109 -0.0919,-1.436233 0.41381,-0.706104 0.44917,-1.454946 0.0858,-1.818256 -0.74425,-0.744252 -2.57161,-1.085273 -3.43181,-0.640448 -0.83212,0.430308 -1.04778,0.942496 -0.74319,1.765128 0.0816,0.220499 0.18138,0.619676 0.22165,0.887058 0.0407,0.270349 0.22817,0.641104 0.42229,0.835218 0.28688,0.286877 0.47293,0.349065 1.04436,0.349065 0.63292,0 0.73641,0.04496 1.15346,0.501126 2.19821,2.4044 4.13671,4.613188 4.08981,4.660078 -0.0314,0.0314 -0.40899,-0.0346 -0.83914,-0.14665 -1.02158,-0.26609 -1.66137,-0.26734 -1.66137,-0.003 0,0.11025 -0.0494,0.20045 -0.10983,0.20045 -0.26448,0 -1.50982,-0.46177 -2.46182,-0.912838 -1.1922,-0.56488 -1.33183,-0.76732 -1.55943,-2.26088 -0.1104,-0.72447 -0.1087,-1.03109 0.007,-1.21595 0.26403,-0.42279 0.0124,-0.919176 -0.96366,-1.901082 -1.22851,-1.235847 -1.33378,-1.171927 -1.3089,0.794838 0.0204,1.611774 0.1745,2.121794 0.7691,2.545184 0.22882,0.16293 0.41602,0.3715 0.41602,0.46349 0,0.092 0.14242,0.29108 0.31649,0.44243 0.21312,0.18531 0.34696,0.4878 0.40979,0.92614 0.10534,0.734928 0.43577,1.940008 1.03275,3.766388 0.22374,0.68451 0.3721,1.27926 0.3297,1.32166 -0.0948,0.0948 -1.38032,-0.77841 -2.17905,-1.48001 -0.71012,-0.623782 -1.03968,-1.233912 -1.23386,-2.28429 -0.0802,-0.43379 -0.1458,-0.80773 -0.1458,-0.83098 0,-0.0233 -0.08,-0.0423 -0.17787,-0.0423 -0.3206,0 -0.45942,0.573358 -0.61475,2.539058 -0.26763,3.386892 -0.46512,5.345402 -0.53893,5.344742 -0.0394,-5.3e-4 -0.42236,-0.54514 -0.85104,-1.21064 z m 0.90543,-39.40525 c 0.35873,-0.396391 0.14106,-0.54296 -0.80636,-0.54296 -0.84268,0 -1.79189,0.267748 -1.79189,0.505447 0,0.247256 0.21062,0.296363 1.27109,0.296363 0.91135,0 1.13183,-0.04301 1.32716,-0.25885 z"
         style="fill:#414141;fill-opacity:1;stroke-width:0.13363476" />
      <path
         transform="scale(0.26458333)"
         inkscape:connector-curvature="0"
         id="path4595"
         d="m 354.95305,353.174 c 0.0425,-0.51355 0.0522,-1.60949 0.0195,-2.20971 -0.0728,-1.33951 -0.24237,-2.45692 -0.52739,-3.47557 -0.16754,-0.59875 -0.16569,-0.57039 -0.0283,-0.43295 l 0.11761,0.11761 0.0419,0.41921 c 0.023,0.23057 0.0519,0.43719 0.0641,0.45915 0.0122,0.022 0.0691,0.11096 0.12649,0.19777 l 0.1043,0.15783 0.0346,0.71027 c 0.0401,0.82458 0.0614,0.95997 0.19001,1.21188 l 0.0949,0.18594 v 1.11223 1.11223 l -0.0778,0.13926 c -0.0428,0.0766 -0.0998,0.21688 -0.12673,0.31175 l -0.0489,0.1725 z"
         style="fill:#ff5100;fill-opacity:1;stroke-width:0.03156727" />
      <path
         transform="scale(0.26458333)"
         inkscape:connector-curvature="0"
         id="path4597"
         d="m 354.14912,346.53779 c -0.0608,-0.16877 -0.1146,-0.31604 -0.11963,-0.32726 -0.005,-0.0112 0.028,-0.0133 0.0734,-0.005 0.0457,0.009 0.0936,0.0456 0.10727,0.0827 0.0246,0.0665 0.0763,0.55625 0.0587,0.55613 -0.005,-3e-5 -0.0589,-0.13814 -0.1197,-0.30691 z"
         style="fill:#ff5100;fill-opacity:1;stroke-width:0.03156727" />
      <path
         transform="scale(0.26458333)"
         inkscape:connector-curvature="0"
         id="path4599"
         d="m 354.86528,349.73521 c -0.005,-0.0536 -0.0335,-0.27459 -0.0512,-0.39941 -0.19249,-1.36142 -0.54018,-2.59985 -1.05061,-3.74219 -0.0879,-0.1968 -0.21401,-0.45681 -0.31428,-0.64817 -0.0258,-0.0493 -0.0463,-0.0902 -0.0455,-0.091 8e-4,-8e-4 0.005,0.004 0.009,0.0114 0.0112,0.018 0.0356,0.0408 0.0495,0.0464 0.006,0.003 0.0312,0.006 0.055,0.008 0.0483,0.003 0.0646,0.009 0.0739,0.0272 0.008,0.0158 0.0161,0.0532 0.0212,0.0997 0.002,0.0215 0.007,0.0645 0.0104,0.0957 0.0177,0.1627 0.0497,0.26753 0.10091,0.33008 0.0323,0.0394 0.0589,0.0563 0.1085,0.0685 0.0437,0.0108 0.057,0.0196 0.0705,0.0467 0.0148,0.0297 0.0233,0.0725 0.042,0.21289 0.036,0.27027 0.0611,0.34889 0.12438,0.38907 l 0.0169,0.0108 -0.0258,-3.9e-4 c -0.0142,-2.2e-4 -0.0276,10e-4 -0.0298,0.004 -0.003,0.003 0.002,0.019 0.0133,0.0505 0.01,0.0256 0.0467,0.12738 0.0827,0.22621 0.0995,0.27352 0.13557,0.36523 0.14371,0.36523 0.012,0 -0.0165,-0.32258 -0.0423,-0.47851 -0.0145,-0.0878 -0.0251,-0.10916 -0.0688,-0.13862 l -0.0248,-0.0167 0.0299,0.002 c 0.0178,10e-4 0.0339,0.005 0.0396,0.009 0.0214,0.014 0.0328,0.062 0.0436,0.18373 0.0245,0.27527 0.0409,0.40383 0.0608,0.4777 0.008,0.0279 0.0288,0.0747 0.0433,0.0952 0.0109,0.0155 0.009,0.0163 -0.009,0.004 -0.024,-0.0174 -0.0286,-0.0133 -0.0258,0.0228 0.003,0.036 0.0175,0.0941 0.0861,0.3402 0.0877,0.3147 0.11707,0.42632 0.1626,0.61824 0.11938,0.50319 0.20931,1.00991 0.28094,1.58294 0.0208,0.16604 0.0261,0.21679 0.0229,0.21679 -0.001,0 -0.003,-0.0127 -0.005,-0.0283 z"
         style="fill:#ff5100;fill-opacity:1;stroke-width:0.00390625" />
      <path
         transform="scale(0.26458333)"
         inkscape:connector-curvature="0"
         id="path4601"
         d="m 354.59791,347.77478 c -0.005,-0.0416 -0.0209,-0.19408 -0.0355,-0.33877 l -0.0265,-0.26307 -0.0287,-0.0289 c -0.0158,-0.0159 -0.0274,-0.0289 -0.0258,-0.0289 0.002,0 0.0134,0.005 0.0261,0.0117 0.0267,0.0135 0.0267,0.0135 0.039,0.086 0.0148,0.0872 0.0268,0.19772 0.0411,0.37891 0.005,0.0677 0.0125,0.15156 0.016,0.18641 0.009,0.0894 0.005,0.0872 -0.006,-0.003 z"
         style="fill:#ff5100;fill-opacity:1;stroke-width:0.00390625" />
      <path
         transform="scale(0.26458333)"
         inkscape:connector-curvature="0"
         id="path4603"
         d="m 354.51145,347.1443 c -0.023,-0.0232 -0.023,-0.0254 -3e-4,-0.0138 0.0133,0.007 0.0282,0.0284 0.0232,0.0334 -9.6e-4,9.5e-4 -0.0112,-0.008 -0.0229,-0.0197 z"
         style="fill:#ff5100;fill-opacity:1;stroke-width:0.00390625" />
    </g>
    <path
       style="fill:#414141;fill-opacity:1;stroke-width:0.00390625"
       d=""
       id="path4605"
       inkscape:connector-curvature="0"
       transform="scale(0.26458333)" />
    <path
       style="fill:#ff5100;fill-opacity:1;stroke-width:0.17677669"
       d=""
       id="path4664"
       inkscape:connector-curvature="0"
       transform="scale(0.26458333)" />
  </g>
</svg>
