<?xml version="1.0" encoding="UTF-8" standalone="no"?>
<svg
   width="1920.175"
   height="1080.014"
   viewBox="0 0 1920.175 1080.0141"
   version="1.1"
   xml:space="preserve"
   id="SVGRoot"
   inkscape:version="1.3 (0e150ed6c4, 2023-07-21)"
   sodipodi:docname="Xfce4 WallPaper.svg"
   xmlns:inkscape="http://www.inkscape.org/namespaces/inkscape"
   xmlns:sodipodi="http://sodipodi.sourceforge.net/DTD/sodipodi-0.dtd"
   xmlns:xlink="http://www.w3.org/1999/xlink"
   xmlns="http://www.w3.org/2000/svg"
   xmlns:svg="http://www.w3.org/2000/svg"><defs
   id="defs1"><color-profile
     name="Blue"
     xlink:href="file:///usr/share/color/icc/colord/Bluish.icc"
     id="color-profile1" /></defs>&#10;  <sodipodi:namedview
   pagecolor="#1a1a1a"
   bordercolor="#292929"
   borderopacity="1"
   inkscape:showpageshadow="2"
   inkscape:pageopacity="0.0"
   inkscape:pagecheckerboard="false"
   inkscape:deskcolor="#232323"
   id="namedview1"
   inkscape:zoom="4.0717934"
   inkscape:cx="1104.6729"
   inkscape:cy="531.58394"
   inkscape:window-width="1920"
   inkscape:window-height="1020"
   inkscape:window-x="0"
   inkscape:window-y="36"
   inkscape:window-maximized="1"
   inkscape:current-layer="SVGRoot" />&#10; <style
   type="text/css"
   id="style1">&#10;g.prefab path {&#10;  vector-effect:non-scaling-stroke;&#10;  -inkscape-stroke:hairline;&#10;  fill: none;&#10;  fill-opacity: 1;&#10;  stroke-opacity: 1;&#10;  stroke: #00349c;&#10;}&#10; </style>&#10; &#10;<circle
   style="fill:#ffffff;fill-opacity:0.66666669;stroke:#ffffff;stroke-width:0.5;stroke-opacity:1;stroke-dasharray:none"
   id="path7"
   cx="960.08752"
   cy="540.00702"
   r="240.26501" /><g
   id="g2"
   transform="rotate(-3.7883624,6991.6809,-8944.8526)"
   style="fill:#353535;fill-opacity:1;stroke:#ffffff;stroke-width:0.5;stroke-dasharray:none;stroke-opacity:1"><path
     d="m 614.7394,50.104193 c -3.16601,-2.420684 -27.99324,33.787873 -22.50345,37.545348 3.30109,2.282742 23.91775,-36.254538 22.50345,-37.545348 z"
     id="path13"
     style="fill:#353535;fill-opacity:1;stroke:#ffffff;stroke-width:0.5;stroke-dasharray:none;stroke-opacity:1" /><path
     d="m 586.19847,45.030837 c -1.56691,-1.681681 -9.88167,37.338396 -6.03701,39.06607 3.30108,2.282742 9.05041,-37.036236 6.03701,-39.06607 z"
     id="path18"
     style="fill:#353535;fill-opacity:1;stroke:#ffffff;stroke-width:0.5;stroke-dasharray:none;stroke-opacity:1" /></g><path
   d="m 608.93957,444.53222 c 1.88797,-0.42127 50.9886,19.63613 83.49014,25.53883 57.90109,9.69165 112.62333,46.77678 139.31732,68.39351 1.99692,1.86915 20.69875,-15.09042 41.42991,-15.33081 28.32034,-0.28865 117.12928,16.62262 127.77106,0.39753 6.4727,-9.54007 5.2287,-20.63637 13.7518,-25.77948 4.6697,-1.54363 -20.2508,-37.94895 2.7646,-51.66545 16.4638,-8.97049 33.7638,34.00274 38.451,38.63653 2.0994,2.07305 12.4987,1.92429 10.9397,-3.01208 -1.6904,-5.3622 -21.245,-46.40208 -1.1559,-54.83581 32.5792,-14.43205 31.0423,52.11292 32.0354,53.93659 2.1124,3.8826 116.7539,-0.6077 126.8433,46.5133 5.7475,25.92022 -87.7065,66.10187 -96.6676,72.75197 -8.9574,6.64987 -7.5388,16.24343 -3.4952,21.96991 4.623,6.19501 33.9484,26.19575 30.9074,36.8483 -2.1653,6.18039 -55.6554,-12.40461 -58.671,-7.55373 -6.9911,9.34722 39.9293,28.47916 25.2734,45.2301 -5.9734,4.1744 -79.6495,-22.55408 -79.4442,-22.19569 -1.877,0.80237 -100.05289,23.4556 -177.7439,7.19069 -2.73402,-0.52339 -46.22172,44.55594 -51.57909,43.45903 -7.35544,-1.96197 8.18514,-37.2446 5.76033,-43.85507 -3.48228,-3.5417 -31.79041,17.42136 -34.12485,7.98062 -2.86654,-12.42076 24.15943,-28.707 22.30719,-36.94202 -10.3454,-46.79464 -1.73515,-75.09084 14.46125,-99.34026 5.34798,-8.88623 -73.5114,-56.50964 -129.45643,-73.66148 -55.94144,-17.15205 -86.30112,-32.81828 -83.16563,-34.67503 z"
   id="path14"
   style="fill:#353535;fill-opacity:1;stroke:#ffffff;stroke-width:0.5;stroke-dasharray:none;stroke-opacity:1" /></svg>
