<?xml version="1.0" encoding="UTF-8" standalone="no"?>
<svg
   width="1920"
   height="1080"
   viewBox="0 0 1920 1080"
   version="1.1"
   xml:space="preserve"
   id="SVGRoot"
   inkscape:version="1.3 (0e150ed6c4, 2023-07-21)"
   sodipodi:docname="Xfce4 WallPaper.svg"
   xmlns:inkscape="http://www.inkscape.org/namespaces/inkscape"
   xmlns:sodipodi="http://sodipodi.sourceforge.net/DTD/sodipodi-0.dtd"
   xmlns:xlink="http://www.w3.org/1999/xlink"
   xmlns="http://www.w3.org/2000/svg"
   xmlns:svg="http://www.w3.org/2000/svg"><defs
   id="defs1"><color-profile
     name="Blue"
     xlink:href="file:///usr/share/color/icc/colord/Bluish.icc"
     id="color-profile1" /></defs>&#10;  <sodipodi:namedview
   pagecolor="#1a1a1a"
   bordercolor="#292929"
   borderopacity="1"
   inkscape:showpageshadow="2"
   inkscape:pageopacity="0.0"
   inkscape:pagecheckerboard="false"
   inkscape:deskcolor="#232323"
   id="namedview1"
   inkscape:zoom="0.50520044"
   inkscape:cx="962.98412"
   inkscape:cy="501.78104"
   inkscape:window-width="1685"
   inkscape:window-height="1044"
   inkscape:window-x="-5"
   inkscape:window-y="31"
   inkscape:window-maximized="0"
   inkscape:current-layer="SVGRoot" />&#10; <style
   type="text/css"
   id="style1">&#10;g.prefab path {&#10;  vector-effect:non-scaling-stroke;&#10;  -inkscape-stroke:hairline;&#10;  fill: none;&#10;  fill-opacity: 1;&#10;  stroke-opacity: 1;&#10;  stroke: #00349c;&#10;}&#10; </style>&#10; &#10;<rect
   style="fill:#565656;fill-opacity:1;stroke-width:0.894539"
   id="rect1"
   width="386.94421"
   height="384.98117"
   x="868.2514"
   y="-485.62634"
   transform="matrix(0.70966688,0.70453738,-0.70455413,0.70965025,0,0)"
   ry="43.470642"
   rx="39.731472" /><path
   d="m 791.74002,465.01317 c 0.93029,-0.14929 24.12692,11.59632 39.71872,15.65528 27.80311,6.8158 53.18193,27.32955 65.44857,39.11331 0.90953,1.00852 10.53575,-6.91367 20.60981,-6.34306 13.76063,0.79952 56.33936,12.2847 62.02829,4.4637 3.44967,-4.59142 3.2024,-10.22454 7.50627,-12.53186 2.31707,-0.62203 -8.61293,-19.79883 3.00354,-25.94284 8.28266,-3.97104 15.30128,18.26117 17.42818,20.75262 0.9528,1.11468 6.0071,1.38671 5.4088,-1.15283 -0.6484,-2.7585 -8.8239,-24.09168 1.2018,-27.67126 16.2834,-6.18548 13.3975,27.29638 13.8211,28.2485 0.9009,2.02699 56.7111,3.58953 60.0951,27.67126 1.9574,13.25341 -44.7125,30.38331 -49.2775,33.43541 -4.5632,3.0521 -4.1828,7.9338 -2.4035,10.95438 2.0456,3.27603 15.6419,14.33325 13.8228,19.59978 -1.2501,3.04215 -26.6255,-8.10796 -28.2457,-5.76415 -3.6952,4.47696 18.4726,15.68347 10.8176,23.63552 -3.0347,1.90424 -37.94981,-14.02307 -37.86162,-13.83563 -0.93721,0.3417 -49.33629,8.48119 -86.53735,-2.30732 -1.3107,-0.35497 -23.87619,20.9102 -26.44226,20.17869 -3.50846,-1.23411 5.1719,-18.49506 4.20704,-21.90711 -1.577,-1.90092 -15.99643,7.71816 -16.82642,2.88291 -0.99254,-6.35467 12.65396,-13.6598 12.01936,-17.87137 -3.51883,-23.9258 1.5718,-37.89744 10.21586,-49.5767 2.8825,-4.29948 -33.87763,-30.92904 -60.49108,-41.43888 -26.61171,-10.50983 -40.84959,-19.41732 -39.26741,-20.24835 z"
   id="path14"
   style="fill:#ff8700;fill-opacity:1;stroke:#212121;stroke-width:1.69359pt;stroke-opacity:1" /><path
   d="m 1089.6639,489.15527 c -1.5407,-1.2225 -13.6223,17.06356 -10.9508,18.96117 1.6064,1.15283 11.639,-18.30928 10.9508,-18.96117 z"
   id="path13"
   style="fill:#ff8700;fill-opacity:1;stroke:#212121;stroke-width:1.01615pt;stroke-opacity:1" /><path
   d="m 1075.7751,486.59312 c -0.7625,-0.84928 -4.8087,18.85666 -2.9378,19.72916 1.6064,1.15283 4.4042,-18.70405 2.9378,-19.72916 z"
   id="path18"
   style="fill:#ff8700;fill-opacity:1;stroke:#212121;stroke-width:1.01615pt;stroke-opacity:1" /></svg>
