<?xml version="1.0" encoding="UTF-8" standalone="no"?>
<svg
   width="1920.175"
   height="1080.014"
   viewBox="0 0 1920.175 1080.0141"
   version="1.1"
   xml:space="preserve"
   id="SVGRoot"
   inkscape:version="1.3 (0e150ed6c4, 2023-07-21)"
   sodipodi:docname="Xfce4 WallPaper.svg"
   xmlns:inkscape="http://www.inkscape.org/namespaces/inkscape"
   xmlns:sodipodi="http://sodipodi.sourceforge.net/DTD/sodipodi-0.dtd"
   xmlns:xlink="http://www.w3.org/1999/xlink"
   xmlns="http://www.w3.org/2000/svg"
   xmlns:svg="http://www.w3.org/2000/svg"><defs
   id="defs1"><color-profile
     name="Blue"
     xlink:href="file:///usr/share/color/icc/colord/Bluish.icc"
     id="color-profile1" /></defs>&#10;  <sodipodi:namedview
   pagecolor="#1a1a1a"
   bordercolor="#292929"
   borderopacity="1"
   inkscape:showpageshadow="2"
   inkscape:pageopacity="0.0"
   inkscape:pagecheckerboard="false"
   inkscape:deskcolor="#232323"
   id="namedview1"
   inkscape:zoom="0.35723065"
   inkscape:cx="442.29128"
   inkscape:cy="152.5625"
   inkscape:window-width="1920"
   inkscape:window-height="1020"
   inkscape:window-x="0"
   inkscape:window-y="36"
   inkscape:window-maximized="1"
   inkscape:current-layer="SVGRoot" />&#10; <style
   type="text/css"
   id="style1">&#10;g.prefab path {&#10;  vector-effect:non-scaling-stroke;&#10;  -inkscape-stroke:hairline;&#10;  fill: none;&#10;  fill-opacity: 1;&#10;  stroke-opacity: 1;&#10;  stroke: #00349c;&#10;}&#10; </style>&#10; &#10;<g
   id="g2"
   transform="translate(641.99978,426.99982)"
   style="fill:#ffffff;fill-opacity:1;stroke:#ff8700;stroke-opacity:1"><path
     d="m 2.518226,2.2999832 c 1.91168,-0.2956089 49.5798,22.9621088 81.62032,30.9993158 57.134244,13.496069 109.286644,54.115726 134.494064,77.448941 1.86906,1.997 21.65056,-13.689864 42.35231,-12.559991 28.27753,1.583146 115.77506,24.325171 127.46556,8.838651 7.08892,-9.091559 6.58081,-20.24581 15.42505,-24.814553 4.7615,-1.231722 -17.69919,-39.204018 6.17219,-51.369883 17.02052,-7.863118 31.44346,36.159255 35.81418,41.09261 1.95794,2.207223 12.3443,2.745881 11.11487,-2.282702 -1.33245,-5.462171 -18.13281,-47.704381 2.46961,-54.792359 33.46168,-12.2479762 27.53131,54.050044 28.40182,55.935343 1.85124,4.013682 116.53892,7.107708 123.49295,54.792364 4.02234,26.24332 -91.88237,60.16255 -101.26327,66.20605 -9.37714,6.04351 -8.59546,15.70984 -4.93909,21.69097 4.20365,6.48692 32.14347,28.38152 28.40525,38.80987 -2.56887,6.02382 -54.71426,-16.05472 -58.0437,-11.41369 -7.59344,8.86489 37.9604,31.05511 22.22974,46.80112 -6.23619,3.7706 -77.98531,-27.76734 -77.80409,-27.39617 -1.92591,0.6766 -101.38401,16.79373 -177.83061,-4.56878 -2.69347,-0.70289 -49.06459,41.40465 -54.33778,39.95617 -7.20974,-2.44366 10.62805,-36.62241 8.6453,-43.37865 -3.24066,-3.76404 -32.87199,15.28286 -34.57757,5.70851 -2.03962,-12.58301 26.00335,-27.04803 24.69925,-35.38743 -7.23102,-47.37592 3.22999,-75.0414 20.99318,-98.16772 C 213.44118,115.9345 137.90065,63.204823 83.211106,42.394099 28.525166,21.583413 -0.73309396,3.9455148 2.518226,2.2999832 Z"
     id="path14"
     style="fill:#ffffff;fill-opacity:1;stroke:#ff8700;stroke-width:3.4163pt;stroke-opacity:1" /><path
     d="m 614.7394,50.104193 c -3.16601,-2.420684 -27.99324,33.787873 -22.50345,37.545348 3.30109,2.282742 23.91775,-36.254538 22.50345,-37.545348 z"
     id="path13"
     style="fill:#ffffff;fill-opacity:1;stroke:#ff8700;stroke-width:2.04976pt;stroke-opacity:1" /><path
     d="m 586.19847,45.030837 c -1.56691,-1.681681 -9.88167,37.338396 -6.03701,39.06607 3.30108,2.282742 9.05041,-37.036236 6.03701,-39.06607 z"
     id="path18"
     style="fill:#ffffff;fill-opacity:1;stroke:#ff8700;stroke-width:2.04976pt;stroke-opacity:1" /></g></svg>
